<svg width="156" height="345" viewBox="0 0 156 345" fill="none" xmlns="http://www.w3.org/2000/svg">
<path opacity="0.32" fill-rule="evenodd" clip-rule="evenodd" d="M-16.4249 0.939026C6.13838 0.939026 28.4808 5.38315 49.3266 14.0178C70.1724 22.6524 89.1133 35.3084 105.068 51.2631C121.023 67.2177 133.679 86.1587 142.313 107.004C150.948 127.85 155.392 150.193 155.392 172.756C155.392 218.325 137.29 262.027 105.068 294.249C72.8459 326.471 29.1437 344.573 -16.4249 344.573C-61.9936 344.573 -105.696 326.471 -137.918 294.249C-170.14 262.027 -188.242 218.325 -188.242 172.756C-188.242 127.187 -170.14 83.485 -137.918 51.2631C-105.696 19.0411 -61.9936 0.939026 -16.4249 0.939026Z" fill="#008E38"/>
</svg>
